<svg version="1.0" xmlns="http://www.w3.org/2000/svg"
     width="381.000000pt" height="600.000000pt" viewBox="0 0 381.000000 600.000000"
     preserveAspectRatio="xMidYMid meet">
  <g transform="translate(0.000000,600.000000) scale(0.100000,-0.100000)"
     fill="#000000" stroke="none">
    <path d="M1655 5984 c-434 -58 -819 -253 -1120 -565 -297 -308 -471 -677 -525
-1109 -14 -116 -14 -2504 0 -2620 57 -455 260 -860 585 -1168 747 -707 1924
-691 2652 36 323 324 512 733 552 1197 14 158 14 2328 1 2485 -59 686 -447
1260 -1055 1563 -330 165 -727 231 -1090 181z m486 -118 c826 -110 1470 -789
1539 -1623 13 -156 13 -2330 0 -2486 -18 -216 -72 -418 -166 -615 -323 -684
-1049 -1091 -1802 -1012 -710 75 -1323 587 -1521 1271 -70 244 -66 141 -66
1594 0 1463 -4 1371 72 1625 43 145 160 383 250 510 87 123 301 336 423 422
121 86 344 198 482 243 97 31 269 69 358 78 90 10 335 5 431 -7z"/>
    <path d="M974 5161 c-117 -68 -224 -229 -259 -394 -25 -114 -18 -236 18 -310
61 -124 237 -232 472 -291 187 -46 334 -68 760 -112 497 -51 651 -77 792 -135
112 -47 181 -137 158 -208 -3 -12 -18 -35 -32 -51 -22 -27 -23 -30 -6 -30 32
0 120 58 157 103 52 64 104 183 118 271 30 195 -56 374 -230 480 -148 90 -363
148 -737 200 -473 66 -539 77 -660 106 -297 71 -439 178 -464 349 -8 57 -21
60 -87 22z"/>
    <path d="M1745 3879 c-112 -11 -310 -60 -407 -100 -218 -90 -394 -228 -501
-395 -86 -134 -117 -234 -117 -380 0 -387 336 -728 826 -839 412 -93 831 -28
1146 177 287 187 445 474 408 739 -54 383 -421 696 -919 784 -109 19 -322 26
-436 14z m275 -65 c209 -47 369 -266 426 -584 20 -112 20 -339 0 -451 -35
-196 -109 -354 -215 -460 -76 -76 -147 -113 -248 -131 -204 -35 -396 80 -506
302 -248 504 -63 1238 334 1325 85 18 127 18 209 -1z"/>
    <path d="M873 2351 c-57 -26 -113 -87 -156 -168 -49 -95 -67 -163 -67 -259 0
-280 181 -443 605 -544 121 -29 209 -43 625 -100 377 -52 559 -97 677 -165
107 -63 174 -154 189 -257 3 -27 8 -48 10 -48 3 0 21 7 41 15 90 38 195 162
253 300 17 41 38 120 47 174 15 93 15 105 0 167 -39 156 -152 255 -384 335
-176 61 -379 95 -853 144 -548 56 -722 88 -853 158 -75 39 -109 83 -115 147
-4 43 -1 55 22 85 31 40 21 44 -41 16z"/>
  </g>
</svg>
